<?xml version="1.0" encoding="UTF-8"?>
<svg width="121px" height="40px" viewBox="0 0 121 40" version="1.1" xmlns="http://www.w3.org/2000/svg" xmlns:xlink="http://www.w3.org/1999/xlink">
    <!-- Generator: Sketch 43.1 (39012) - http://www.bohemiancoding.com/sketch -->
    <title>bluhex</title>
    <desc>Created with Sketch.</desc>
    <defs></defs>
    <g id="Page-1" stroke="none" stroke-width="1" fill="none" fill-rule="evenodd">
        <g id="bluhex" fill-rule="nonzero" fill="#0D6CA8">
            <rect id="Rectangle" x="22.2699387" y="0" width="81.6564417" height="40"></rect>
            <g id="hexagonal">
                <path d="M32.9247469,17.9308585 L26.1286426,2.10459397 C25.5782898,0.823665893 24.5630981,0.0357308585 23.464049,0.0357308585 L9.87246163,0.0357308585 C8.77348158,0.0357308585 7.75856595,0.823665893 7.20779908,2.10459397 L0.412108896,17.9308585 C-0.137346626,19.2116937 -0.137346626,20.787935 0.412108896,22.0689559 L7.20779908,37.8966125 C7.75856595,39.1775406 8.77348158,39.9655684 9.87246163,39.9655684 L23.4639801,39.9655684 C24.5630981,39.9655684 25.5782898,39.1775406 26.1285736,37.8966125 L32.9247469,22.0689559 C33.4741334,20.787935 33.4741334,19.2116937 32.9247469,17.9308585 Z" id="Shape"></path>
            </g>
            <g id="hexagonal-copy" transform="translate(87.595092, 0.000000)">
                <path d="M32.9247469,17.9308585 L26.1286426,2.10459397 C25.5782898,0.823665893 24.5630981,0.0357308585 23.464049,0.0357308585 L9.87246163,0.0357308585 C8.77348158,0.0357308585 7.75856595,0.823665893 7.20779908,2.10459397 L0.412108896,17.9308585 C-0.137346626,19.2116937 -0.137346626,20.787935 0.412108896,22.0689559 L7.20779908,37.8966125 C7.75856595,39.1775406 8.77348158,39.9655684 9.87246163,39.9655684 L23.4639801,39.9655684 C24.5630981,39.9655684 25.5782898,39.1775406 26.1285736,37.8966125 L32.9247469,22.0689559 C33.4741334,20.787935 33.4741334,19.2116937 32.9247469,17.9308585 Z" id="Shape"></path>
            </g>
        </g>
    </g>
</svg>