<?xml version="1.0" encoding="UTF-8"?>
<svg width="122px" height="30px" viewBox="0 0 122 30" version="1.1" xmlns="http://www.w3.org/2000/svg" xmlns:xlink="http://www.w3.org/1999/xlink">
    <!-- Generator: Sketch 43.1 (39012) - http://www.bohemiancoding.com/sketch -->
    <title>greenhex</title>
    <desc>Created with Sketch.</desc>
    <defs></defs>
    <g id="Page-1" stroke="none" stroke-width="1" fill="none" fill-rule="evenodd">
        <g id="greenhex" fill-rule="nonzero" fill="#8FC93A">
            <rect id="Rectangle" x="22.4539877" y="0" width="82.3312883" height="30"></rect>
            <g id="hexagonal">
                <path d="M33.1968523,13.4481439 L26.3445818,1.57844548 C25.7896807,0.61774942 24.7660989,0.0267981439 23.6579668,0.0267981439 L9.95405223,0.0267981439 C8.8459897,0.0267981439 7.82268633,0.61774942 7.26736767,1.57844548 L0.415514755,13.4481439 C-0.138481722,14.4087703 -0.138481722,15.5909513 0.415514755,16.5517169 L7.26736767,28.4224594 C7.82268633,29.3831555 8.8459897,29.9741763 9.95405223,29.9741763 L23.6578973,29.9741763 C24.7660989,29.9741763 25.7896807,29.3831555 26.3445123,28.4224594 L33.1968523,16.5517169 C33.7507791,15.5909513 33.7507791,14.4087703 33.1968523,13.4481439 Z" id="Shape"></path>
            </g>
            <g id="hexagonal-copy" transform="translate(88.319018, 0.000000)">
                <path d="M33.1968523,13.4481439 L26.3445818,1.57844548 C25.7896807,0.61774942 24.7660989,0.0267981439 23.6579668,0.0267981439 L9.95405223,0.0267981439 C8.8459897,0.0267981439 7.82268633,0.61774942 7.26736767,1.57844548 L0.415514755,13.4481439 C-0.138481722,14.4087703 -0.138481722,15.5909513 0.415514755,16.5517169 L7.26736767,28.4224594 C7.82268633,29.3831555 8.8459897,29.9741763 9.95405223,29.9741763 L23.6578973,29.9741763 C24.7660989,29.9741763 25.7896807,29.3831555 26.3445123,28.4224594 L33.1968523,16.5517169 C33.7507791,15.5909513 33.7507791,14.4087703 33.1968523,13.4481439 Z" id="Shape"></path>
            </g>
        </g>
    </g>
</svg>