<?xml version="1.0" encoding="UTF-8"?>
<svg width="163px" height="40px" viewBox="0 0 163 40" version="1.1" xmlns="http://www.w3.org/2000/svg" xmlns:xlink="http://www.w3.org/1999/xlink">
    <!-- Generator: Sketch 43.1 (39012) - http://www.bohemiancoding.com/sketch -->
    <title>Group</title>
    <desc>Created with Sketch.</desc>
    <defs></defs>
    <g id="Page-1" stroke="none" stroke-width="1" fill="none" fill-rule="evenodd">
        <g id="Group" fill="#8FC93A">
            <rect id="Rectangle" x="30" y="0" width="110" height="40"></rect>
            <g id="hexagonal" fill-rule="nonzero">
                <path d="M44.3531715,17.9308585 L35.1980888,2.10459397 C34.4567045,0.823665893 33.0891322,0.0357308585 31.608595,0.0357308585 L13.2992665,0.0357308585 C11.8188223,0.0357308585 10.4516219,0.823665893 9.70967975,2.10459397 L0.555154959,17.9308585 C-0.185020661,19.2116937 -0.185020661,20.787935 0.555154959,22.0689559 L9.70967975,37.8966125 C10.4516219,39.1775406 11.8188223,39.9655684 13.2992665,39.9655684 L31.6085021,39.9655684 C33.0891322,39.9655684 34.4567045,39.1775406 35.1979959,37.8966125 L44.3531715,22.0689559 C45.0932541,20.787935 45.0932541,19.2116937 44.3531715,17.9308585 Z" id="Shape"></path>
            </g>
            <g id="hexagonal-copy" transform="translate(118.000000, 0.000000)" fill-rule="nonzero">
                <path d="M44.3531715,17.9308585 L35.1980888,2.10459397 C34.4567045,0.823665893 33.0891322,0.0357308585 31.608595,0.0357308585 L13.2992665,0.0357308585 C11.8188223,0.0357308585 10.4516219,0.823665893 9.70967975,2.10459397 L0.555154959,17.9308585 C-0.185020661,19.2116937 -0.185020661,20.787935 0.555154959,22.0689559 L9.70967975,37.8966125 C10.4516219,39.1775406 11.8188223,39.9655684 13.2992665,39.9655684 L31.6085021,39.9655684 C33.0891322,39.9655684 34.4567045,39.1775406 35.1979959,37.8966125 L44.3531715,22.0689559 C45.0932541,20.787935 45.0932541,19.2116937 44.3531715,17.9308585 Z" id="Shape"></path>
            </g>
        </g>
    </g>
</svg>