<?xml version="1.0" encoding="UTF-8"?>
<svg width="120px" height="40px" viewBox="0 0 120 40" version="1.1" xmlns="http://www.w3.org/2000/svg" xmlns:xlink="http://www.w3.org/1999/xlink">
    <!-- Generator: Sketch 43.1 (39012) - http://www.bohemiancoding.com/sketch -->
    <title>Group</title>
    <desc>Created with Sketch.</desc>
    <defs></defs>
    <g id="Page-1" stroke="none" stroke-width="1" fill="none" fill-rule="evenodd">
        <g id="Group" fill="#FFFFFF">
            <rect id="Rectangle" x="22.0858896" y="0" width="80.9815951" height="40"></rect>
            <g id="hexagonal" fill-rule="nonzero">
                <path d="M32.6526416,17.9308585 L25.9127034,2.10459397 C25.3668991,0.823665893 24.3600973,0.0357308585 23.2701313,0.0357308585 L9.79087106,0.0357308585 C8.70097348,0.0357308585 7.69444557,0.823665893 7.14823049,2.10459397 L0.408703037,17.9308585 C-0.13621153,19.2116937 -0.13621153,20.787935 0.408703037,22.0689559 L7.14823049,37.8966125 C7.69444557,39.1775406 8.70097348,39.9655684 9.79087106,39.9655684 L23.2700629,39.9655684 C24.3600973,39.9655684 25.3668991,39.1775406 25.912635,37.8966125 L32.6526416,22.0689559 C33.1974877,20.787935 33.1974877,19.2116937 32.6526416,17.9308585 Z" id="Shape"></path>
            </g>
            <g id="hexagonal-copy" transform="translate(86.871166, 0.000000)" fill-rule="nonzero">
                <path d="M32.6526416,17.9308585 L25.9127034,2.10459397 C25.3668991,0.823665893 24.3600973,0.0357308585 23.2701313,0.0357308585 L9.79087106,0.0357308585 C8.70097348,0.0357308585 7.69444557,0.823665893 7.14823049,2.10459397 L0.408703037,17.9308585 C-0.13621153,19.2116937 -0.13621153,20.787935 0.408703037,22.0689559 L7.14823049,37.8966125 C7.69444557,39.1775406 8.70097348,39.9655684 9.79087106,39.9655684 L23.2700629,39.9655684 C24.3600973,39.9655684 25.3668991,39.1775406 25.912635,37.8966125 L32.6526416,22.0689559 C33.1974877,20.787935 33.1974877,19.2116937 32.6526416,17.9308585 Z" id="Shape"></path>
            </g>
        </g>
    </g>
</svg>